<?xml version="1.0" encoding="utf-8"?>
<svg viewBox="329.045 -104.628 392.087 362.481" xmlns="http://www.w3.org/2000/svg">
  <g transform="matrix(0.300591, 0, 0, -0.296295, -410.938995, 828.404907)" fill="#000000" stroke="none" style="">
    <path d="M2950 3134 c-103 -28 -203 -83 -290 -161 -40 -35 -122 -156 -147 -218 -76 -181 -67 -383 24 -558 44 -83 161 -208 236 -252 58 -33 56 -36 122 90 26 50 55 104 65 120 9 17 45 83 79 149 l63 118 -26 27 c-52 54 -18 131 51 118 24 -4 39 6 113 79 48 46 91 84 96 84 5 0 22 -18 37 -40 16 -22 36 -40 46 -40 9 0 43 32 75 70 55 67 76 83 76 59 0 -19 -140 -179 -156 -179 -7 0 -14 3 -14 8 0 4 -16 25 -34 47 l-35 40 -76 -75 c-68 -67 -75 -78 -73 -109 l3 -34 104 2 c58 1 108 4 112 7 4 2 85 8 179 13 128 6 175 12 181 22 19 29 -17 175 -68 279 -28 57 -57 95 -122 160 -94 93 -181 145 -297 174 -78 20 -250 20 -324 0z m185 -109 c0 -75 -1 -80 -22 -83 -22 -3 -23 -1 -23 83 0 84 1 86 23 83 21 -3 22 -8 22 -83z m-465 -510 c21 -26 0 -35 -80 -35 -80 0 -101 9 -80 35 9 11 33 15 80 15 47 0 71 -4 80 -15z" style="fill: rgb(9, 27, 64);"/>
  </g>
</svg>