<?xml version="1.0" encoding="utf-8"?>
<svg viewBox="230.162 37.875 512 512" xmlns="http://www.w3.org/2000/svg">
  <g transform="matrix(0.249443, 0, 0, -0.241973, -383.907745, 987.033752)" fill="#000000" stroke="none" style="">
    <path d="M 3208.256 3806.653 C 3050.773 3763.067 2897.877 3677.451 2764.858 3556.032 C 2703.7 3501.549 2578.325 3313.193 2540.102 3216.68 C 2423.901 2934.925 2437.661 2620.481 2576.796 2348.066 C 2644.071 2218.863 2822.958 2024.281 2937.63 1955.788 C 3026.31 1904.418 3023.252 1899.748 3124.163 2095.887 C 3163.916 2173.72 3208.256 2257.78 3223.545 2282.686 C 3237.306 2309.149 3292.348 2411.889 3344.333 2514.628 L 3440.657 2698.314 L 3400.904 2740.343 C 3321.398 2824.403 3373.383 2944.265 3478.881 2924.029 C 3515.576 2917.802 3538.51 2933.369 3651.653 3047.005 C 3725.043 3118.611 3790.788 3177.764 3798.433 3177.764 C 3806.078 3177.764 3832.07 3149.744 3855.004 3115.498 C 3879.467 3081.251 3910.047 3053.231 3925.336 3053.231 C 3939.097 3053.231 3991.081 3103.044 4040.008 3162.197 C 4124.1 3266.493 4156.209 3291.4 4156.209 3254.04 C 4156.209 3224.464 3942.155 2975.398 3917.691 2975.398 C 3906.989 2975.398 3896.286 2980.068 3896.286 2987.852 C 3896.286 2994.078 3871.823 3026.768 3844.301 3061.015 L 3790.788 3123.281 L 3674.587 3006.532 C 3570.618 2902.236 3559.916 2885.112 3562.973 2836.856 L 3567.56 2783.93 L 3726.572 2787.043 C 3815.251 2788.6 3891.699 2793.27 3897.815 2797.94 C 3903.931 2801.053 4027.776 2810.393 4171.498 2818.176 C 4367.205 2827.516 4439.066 2836.856 4448.239 2852.423 C 4477.289 2897.566 4422.247 3124.838 4344.27 3286.73 C 4301.459 3375.459 4257.12 3434.612 4157.738 3535.795 C 4014.016 3680.564 3880.996 3761.51 3703.637 3806.653 C 3584.379 3837.787 3321.398 3837.787 3208.256 3806.653 Z M 3491.112 3636.978 C 3491.112 3520.228 3489.584 3512.445 3457.475 3507.775 C 3423.838 3503.105 3422.309 3506.219 3422.309 3636.978 C 3422.309 3767.737 3423.838 3770.85 3457.475 3766.18 C 3489.584 3761.51 3491.112 3753.727 3491.112 3636.978 Z M 2780.148 2843.083 C 2812.256 2802.61 2780.148 2788.6 2657.831 2788.6 C 2535.515 2788.6 2503.407 2802.61 2535.515 2843.083 C 2549.275 2860.206 2585.97 2866.432 2657.831 2866.432 C 2729.692 2866.432 2766.387 2860.206 2780.148 2843.083 Z" style="fill: rgb(255, 102, 0);"/>
  </g>
</svg>